<svg width="200" height="200" viewBox="0 0 200 200" fill="none" xmlns="http://www.w3.org/2000/svg">
<path d="M145.284 6.20341C156.062 13.0638 166.075 22.867 173.279 33.5684C176.834 38.8809 180.579 45.9515 182.796 51.5315C192.886 77.1384 191.797 105.23 179.757 129.69C174.98 139.417 168.789 147.978 160.973 155.736L160.155 156.547C159.3 157.394 158.091 157.782 156.902 157.59V157.59C154.743 157.227 151.131 156.08 149.354 155.201C145.876 153.462 141.748 150.596 136.78 146.449C129.021 139.99 123.824 136.894 118.377 135.518C115.874 134.888 115.95 135.041 117.135 132.767C118.588 129.958 122.161 126.766 125.391 125.409C127.435 124.549 127.378 124.511 124.32 124.836C117.747 125.486 112.492 127.76 107.657 131.983C103.223 135.862 99.3441 141.977 97.2038 148.475V148.475C96.6853 150.006 96.2029 149.992 96.3066 148.379C96.3422 147.825 96.3935 147.226 96.4585 146.64C97.6433 135.824 103.529 126.155 112.358 120.536C120.498 115.358 132.901 113.065 141.328 115.186C143.468 115.721 146.277 117.058 147.328 118.033C147.73 118.396 148.15 118.702 148.265 118.702C148.685 118.702 151.055 116.829 152.526 115.339C156.406 111.402 159.329 105.822 160.591 99.9745C161.068 97.7195 161.068 92.9421 160.591 91.184C159.788 88.1838 157.801 85.3174 156.234 84.8396C155.393 84.5912 154.819 84.7059 152.431 85.5658C151.246 85.9862 150.673 86.0817 149.087 86.0817C143.717 86.1009 136.856 83.5402 121.76 75.9154C117.192 73.6223 108.249 69.6283 103.682 67.8703C95.6559 64.7554 85.8718 63.7617 77.3489 65.214C75.6672 65.5006 74.9411 65.558 74.8837 65.4051C74.6926 64.8509 73.6034 64.5834 70.6796 64.4114C61.335 63.8381 56.462 62.4622 51.933 59.0798C47.3276 55.6401 44.9962 51.4551 44.9962 46.6394C44.9962 40.0275 49.9074 34.1608 56.8442 32.4983C57.3411 32.3645 58.6405 32.2117 59.7489 32.1543L60.9042 32.0773C61.0679 32.0664 61.0917 31.8353 60.9337 31.7912V31.7912C59.2902 31.2944 56.9398 30.9886 54.9141 30.9886C45.0536 30.9886 36.7218 38.0592 34.8108 48.0535C34.4286 50.0027 34.4286 54.2069 34.8108 56.156C35.1739 58.0288 35.9 60.2646 36.8173 62.2329C38.4416 65.7491 42.1107 70.259 45.6842 73.1445C50.3278 76.9091 57.0735 80.4635 64.1441 82.8904C64.3161 82.9478 63.7428 83.3491 62.7109 83.9033C58.9081 85.9098 56.3283 87.687 51.9904 91.2987C47.6143 94.9295 45.2447 96.4583 42.5884 97.3947C41.3081 97.8342 38.2314 98.331 37.9257 98.1399C37.8301 98.0826 37.7728 98.1017 37.7728 98.1973C37.7919 98.5986 40.8303 100.739 42.8368 101.733C47.2703 103.949 52.4108 104.523 58.6978 103.472V103.472C58.9464 103.434 59.101 103.733 58.927 103.914L57.6277 105.268C54.0351 109.013 49.2386 115.53 46.525 120.326C41.3272 129.518 38.155 139.207 37.1995 148.895C36.7791 153.157 36.9702 160.323 37.5817 164.259C37.6772 164.89 37.7155 165.444 37.6772 165.482C37.4861 165.673 32.938 162.1 29.5556 159.1C16.3891 147.481 6.14631 131.41 1.31156 114.784C-0.10255 109.95 -0.0643301 110.083 0.0503278 110.963C0.317863 112.893 1.71287 119.447 2.40081 121.951C8.707 144.767 22.5233 164.278 42.1298 178.076C46.2575 180.98 52.8312 184.745 57.4557 186.828C67.2208 191.28 77.1196 194.032 87.9356 195.351C92.1397 195.848 102.077 196.058 106.606 195.733C125.983 194.319 144.137 187.554 159.692 175.916C181.592 159.577 195.924 134.869 199.249 107.733C202.154 84.0179 196.574 60.0735 183.465 40.1422C175.477 27.9884 164.393 17.2488 151.991 9.66226C149.354 8.05705 143.831 4.99951 143.526 4.99951C143.449 4.99951 144.233 5.53458 145.284 6.20341ZM103.644 75.9919C104.676 76.2403 106.166 76.6798 106.95 76.9664C108.746 77.6162 112.396 79.2978 112.262 79.4316C112.205 79.4889 111.498 79.4316 110.657 79.3169C109.033 79.0876 107.619 79.2023 106.682 79.6227C106.357 79.7565 105.631 80.3106 105.077 80.8457C104.102 81.763 103.988 81.8203 103.051 81.8203C101.886 81.8203 101.064 81.4381 98.9046 79.9093C97.1656 78.6481 95.8088 78.0175 94.5476 77.8646C94.0125 77.8073 93.573 77.6926 93.573 77.5971C93.573 77.5206 93.8596 77.2149 94.2036 76.9282C96.1145 75.3039 99.4587 74.979 103.644 75.9919ZM156.1 90.0757C157.208 90.8401 157.934 92.7892 157.686 94.3753V94.3753C157.654 94.5929 157.349 94.6153 157.286 94.4047L157.265 94.3371C156.692 92.3688 155.546 91.4707 153.826 91.6044C152.736 91.7 152.679 91.6235 153.08 90.84C153.768 89.5024 154.877 89.2157 156.1 90.0757Z" fill="#303030"/>
<path d="M121.925 29.1978C131.88 33.5991 136.81 44.5416 132.987 53.7575C131.255 57.94 128.538 60.7607 123.897 63.1923C121.877 64.2623 121.781 64.3352 122.334 64.5541C123.969 65.2106 128.947 67.5693 133.491 69.8794L137.62 71.9669C138.157 72.2386 138.812 72.0983 139.19 71.6302V71.6302C140.152 70.4387 141.908 67.3991 142.629 65.6483C146.717 55.7515 145.13 45.0522 138.349 37.0277C134.838 32.8939 129.163 29.7814 123.2 28.7358C120.074 28.2008 119.833 28.2738 121.925 29.1978Z" fill="#303030"/>
</svg>
